<?xml version="1.0" encoding="UTF-8"?>
<svg id="Layer_2" data-name="Layer 2" xmlns="http://www.w3.org/2000/svg" viewBox="0 0 107.01 136.22">
  <defs>
    <style>
      .cls-1 {
        fill: none;
        stroke: #000;
        stroke-miterlimit: 10;
        stroke-width: .75px;
      }
    </style>
  </defs>
  <g id="Layer_1-2" data-name="Layer 1">
    <path id="outline" class="cls-1" d="m60.78,129.65c-2.03,1.27-4.24,2.41-6.62,3.4l-1.54.64-1.49-.76c-3.25-1.66-6.75-3.54-10.03-5.75l1.01,7.55-6.65-4.48C17.01,117.82,5.38,107.4.55,91l-.17-.58.03-.6c.17-3.83.66-6.95,1.09-9.71.66-4.23,1.23-7.89.61-13.32l-.16-1.38.81-1.13c2.42-3.38,4.43-7.27,6.37-11.04,1.35-2.62,2.62-5.09,4.01-7.35,1.9-3.1,4.17-5.62,6.91-7.69,1.2-7.73,2.27-10.97,6.17-16.77.03-.05,3.22-5.07,7.39-17.73l1.07-3.26,3.31.91c8.38,2.31,13.86,8.56,16.71,19.06.19,0,.38,0,.56,0,1.84,0,3.69.34,6.05,1.14.69-.6,1.52-1.27,2.38-1.82.2-.19.61-.63.94-.99,2.53-2.73,6.77-7.31,11.96-7.31.22,0,.44,0,.66.03l3.16.24.16,3.17c.1,2.09.47,3.72.85,5.44.7,3.14,1.42,6.37.62,11.84.98.67,1.88,1.47,2.72,2.71.97,1.43,1.49,3.22,2.24,5.89.15.29.3.58.46.88.87,1.64,1.77,3.33,1.86,5.03.03.64-.05,1.33-.21,2.02,1.54.64,3.52,1.41,5.52,2.14l.34.12c5.68,2.06,8.8,3.2,10.74,5.44l.92,1.07-.05,1.41c-.16,4.48-1.66,7.21-3.43,9.37-.14,1.83-.46,3.35-.97,4.7-1.21,3.17-3.83,6.86-6.38,8.99-.96.81-2.07,1.05-2.99,1.13-3.32,3.91-5.85,5.38-9.93,6.9,0,.08,0,.16,0,.24.05,2.2-.71,4.02-1.26,5.18,1.11,4.93.97,8.25-.45,12.64-2.68,8.3-8.31,16.94-14.01,21.48l-7.31,5.83.93-5.67Z"/>
  </g>
</svg>